<?xml version="1.0" encoding="utf-8"?><!DOCTYPE svg PUBLIC "-//W3C//DTD SVG 1.1//EN" "http://www.w3.org/Graphics/SVG/1.1/DTD/svg11.dtd"><svg version="1.1" xmlns="http://www.w3.org/2000/svg" xmlns:xlink="http://www.w3.org/1999/xlink" x="0px" y="0px" viewBox="0 0 100 95.329" enable-background="new 0 0 100 95.329" xml:space="preserve"><path fill="#010101" d="M31.832,95.329h-1.248l-2.211-2.42l-0.899-2.364l0.51-0.812l-0.2-0.839l-1.167-1.275l-0.616-1.551
	l-3.498-6.436l-0.936-4.242l-0.771-2.473l-3.198-5.424l-1.072-5.452l-0.642-1.723v-1.141l0.045-0.985l-0.359-1.434l-0.22-0.522
	l-0.254-1.098l-0.467-0.834l0.871-1.837l0.171-1.76l-0.997-1.133v-0.674l1.623-0.947l-0.019-0.102h-0.444l-0.417,0.351l-0.632-0.406
	l-0.289-0.578l-0.125-0.563L16.121,46l-0.11-0.051l-1.505,0.118l-0.374-0.436l-0.43,0.238l-0.164,0.426l0.346,0.375l-0.896,0.555
	l-0.08,0.393l0.546,0.605l-0.809,1.618l-1.871,1.099l-1.561,0.674l-1.905-0.528l-1.231-0.98L3.1,47.243l-1.04-1.167l-0.18-0.359
	l0.433-0.345l1.047,0.522l1.348-0.347l1.358-0.527l0.703-0.703l0.745-0.896V43.21H7.316l-0.855,0.546L5.289,43.89l-0.716,0.416
	H3.266l-1.278-0.781l-0.6-0.211l-0.292-0.534l-0.34-0.298l-0.439-0.265L0,41.38l0.77-0.679l0.688-0.354l-0.122-0.272l-0.159-0.848
	l0.419-0.279h2.871l0.441,0.486L5.56,39.3l0.637-0.319l0.534-0.534h0.622l1.127,0.271l0.653-0.089v-1.002L8.72,36.171l-0.462-0.439
	l-0.342-0.821l-0.115-0.505H7.353L6.425,34.28l-0.321-0.516l-0.245-1.078l0.317-0.488l0.056-0.399l-0.154-0.496l-0.39-0.013
	l-0.616-0.25l-1.166-0.421l-0.189-1.167l0.69-0.84l0.9-0.923l0.938-0.916l0.951-0.976l0.796,0.375l0.434,0.525l0.288,0.268
	L9.84,26.84l0.865-0.323h1.146l1.562-1.908l0.187-0.795l0.915-0.746l1.221-0.77l0.833-1.117c0.307-0.773,0.642-1.642,0.666-1.747
	c0.015-0.089,0.038-0.229,1.251-0.732l0.617-0.78v-0.364l2.417-1.984v-1.146l-0.108-0.77L21.02,12.82l0.588-0.216l0.817-0.676
	l1.062-0.311l0.428-0.335v-0.27l-0.523-0.126l-1.203,0.005l-0.239-0.667l-0.268-0.383l-0.729-0.182l-0.512-0.721l-0.469-0.225
	l-0.665-0.691l0.389-0.666l0.193-0.215l-0.31-0.713l-0.027-0.625l0.666-0.45l-0.138-0.12h-0.726l-0.168-1.081l-0.471-0.198
	l0.1-0.632l0.79-0.765l1.188-0.222l4.254,1.09l0.862-0.28l1.454-0.324l0.883-0.067l0.481-0.377l0.96-0.907l0.844-0.456l0.912-0.694
	L32.285,0l0.522,0.21l0.569,0.398l0.496,0.91l0.258,1.03l0.628,0.439l0.768,0.355l0.516,0.451l0.539,0.14l0.386,0.455l-0.53,0.642
	l-0.35,0.689l0.209,0.519v0.402l0.244,0.376l0.552,0.331l0.275,0.296l0.406,0.214l0.396,0.128l0.392,0.986l0.17,0.561l-0.642,0.868
	l-0.457,0.319l-0.591,0.544l-0.558,0.1l-0.574-0.899l-0.266-0.219l-0.301,0.184l-0.266,0.133l0.031,0.286l0.114,0.43l0.307,0.196
	l0.25,0.576l0.311,0.474v1.239l0.075,0.8h0.082l0.75-0.227l0.562-0.026l1.073,1.165l0.793,0.229h0.702l0.621,0.522l0.457,0.517
	l0.169,0.355l0.76,0.186l0.908,0.147l0.439,0.657v0.65l-0.896,0.647l-0.703,0.707l-0.26,0.672l-0.224,0.783l-0.168,1.164
	l-0.368,0.184l0.084,0.364l0.643,0.261l1.582,0.54l1.254,0.821l0.922,0.691l0.918,0.545l0.749,0.176l0.955,0.021l0.621,0.459
	l1.052,0.093l0.415,0.513l0.798,0.461l0.64,0.023l1.167-0.093l0.751,0.137l0.887-0.089l1.202-0.001l0.809,1.047l0.951,0.577
	l0.929,0.684l1.445,0.081l0.907,0.398l1.626,0.139l0.914,0.574l0.675-0.184l0.843-0.307l0.665,0.616l1.315-0.065h1.188l0.373-0.882
	v-0.757l-0.532-0.881l0.23-1.321l0.191-0.409l0.127-1.036l1.002-0.194l0.244-0.292l0.877,0.049l0.407,0.229l0.316,0.544
	l-0.347,1.045l-0.127,0.31l0.182,0.312l0.349,0.438l-0.482,0.386l-0.119,0.152l0.239,0.145l0.572,0.546l0.637,0.021l0.521,0.07
	l0.613,0.239l0.689,0.215l0.846-0.021l0.935-0.42l1.13,0.26l4.806-0.201l0.209-0.557l-0.329-0.985l-0.483-0.401l-0.929-0.544
	l0.613-0.779h0.772l0.913-0.113l1.049-0.301l1.701-1.59l0.837-0.909l1.349-0.115l1.195-0.753l0.704-0.696l1.05-0.479l0.752-0.211
	l1.065,0.498l0.845,0.155l0.682-0.022l0.59-0.665l0.916-0.506l0.801,0.08l0.474,0.448l0.498,0.168l-0.811,0.593l-0.026,0.22
	l0.702-0.264l0.396,0.164l0.456,0.755l-0.192,0.742l-0.403,0.356l-0.158,0.317l2.52,0.188l0.799,0.44v0.517l-0.177,0.981
	l-1.128,0.654l-0.017,0.396l0.668,1.166l-0.466,0.754l-1.094-0.965l-0.641-0.022l-0.424,0.04c-0.47,0.395-0.567,0.395-0.621,0.395
	c-0.052,0.009-0.368,0.123-0.637,0.227l-0.585,0.485l-0.434,0.205l-0.806,0.491l-0.954,0.26l-0.44,0.48v1.115l-0.193,1.453
	l-1.021,1.046l-0.399,0.667l0.035,0.348l0.247,0.616l-0.623,1.478l-0.638,0.821l-0.65,1.019l-0.053,0.84l-0.86,0.065l-0.757-0.844
	l-0.977,0.332l-0.019,0.604c0.036,0.407,0.094,1.042,0.109,1.117c0.01,0.04,0.031,0.129-0.228,1.377l-0.021,0.102l-0.591,0.197
	v0.919l-0.054,1.65l-0.161,0.509l-0.868,0.409l-1.05-0.377l-0.481-1.872l-0.407-1.362l-0.325-2.256l-0.791,0.05l-0.112,0.453
	l-0.619,0.941l0.116,0.583l-0.69,0.811l-0.999-0.761l-0.366-0.548l-0.44-1.139l-0.048-0.756l0.439-0.853l1.973-0.893l0.805-0.531
	l0.41-0.759l0.445-0.633l0.388-0.49l-0.088-0.417l-0.61,0.072l-4.824-0.341l-2.638,0.094l-1.455-1.483l0.777-0.57v-0.319
	l-0.081-0.803l-0.38-0.344l-0.057,0.014l-0.042,0.478l-0.713,0.327l-0.713-0.275l-0.673-0.926l-0.271-0.167l-0.479,0.385
	l-0.593-0.566l-0.327-0.493l-0.284-0.059c0.14,0.436,0.14,0.487,0.14,0.512c0,0.092,0,0.187-0.562,0.439l-0.309,0.245l-0.038,0.738
	l0.319,0.643l0.505,0.315l0.366,0.338l0.987,0.377l0.26,0.468l0.475,0.767l-1.801-0.104l-0.199,0.396l-0.443,0.734l-0.574,0.023
	l-0.359,0.557l0.175,0.559l1.369,0.427l0.873,0.163l-0.14,1.351l-0.602,0.557l0.037,0.467l1.053,1.933l0.091,1.186l0.163,2.528
	l-0.546,1.389l-0.727-0.383l0.271-1.535l-0.133-0.052l-1.063,1.786l-0.963-0.609l0.383-1.127l-0.32-0.518l-0.468-0.072l0.503,1.043
	l-1.192,1.078l-1.163,0.57c-0.928,0.455-1.198,0.571-1.297,0.602c-0.071,0.049-0.294,0.264-0.49,0.466l0.136,1.605l-0.603,1.375
	l-1.3,1.324l-0.571-0.112l0.036,0.503l-0.653,0.473c-0.22,0.077-0.955,0.329-1.153,0.329c-0.188,0-0.728-0.272-1.063-0.452
	l-0.376,0.032l-0.66,1.194l-2.055,3.125l-1.208,0.685l-1.689,0.924l-1.76,1.784l-1.7,1.053l-1.095,0.758l0.092,1.597l-0.975,0.674
	C46.073,66.797,45.401,67,45.307,67h-0.604l-0.607,0.67l-0.702,0.654h-1.46l-0.564,0.521l-0.5,0.723l-0.514,0.858l0.022,1.453
	l0.476,2.501l0.049,1.245l-0.229,0.731l1.173,1.358l-0.823,1.793l-0.797,1.865l-0.738,1.3v1.185l0.115,0.557l0,0.023l-0.167,2.938
	l-1.495,0.38l-0.258,0.417l-0.612,1.11l-0.655,0.855l0.12,1.303l-1.805,0.625l-0.898,0.898l-0.021,0.603l-0.72,1.365L31.832,95.329z
	 M30.743,94.967h1.033l1.065-0.334l0.629-1.196v-0.622l1.102-1.077l1.577-0.546l-0.107-1.161l0.727-0.945l0.601-1.096l0.34-0.548
	l1.379-0.351l0.151-2.651l-0.11-0.547l-0.003-1.315l0.777-1.363l0.789-1.852l0.729-1.588l-1.153-1.334l0.271-0.863l-0.044-1.156
	l-0.476-2.505l-0.026-1.588l0.573-0.957l0.532-0.762l0.694-0.647h1.458l0.587-0.547l0.705-0.777h0.764
	c0.099-0.016,1.029-0.307,1.857-0.576l0.739-0.519l-0.092-1.597l1.27-0.879l1.674-1.032l1.787-1.806l2.878-1.598l1.961-3.02
	l0.747-1.349l0.675-0.061l0.048,0.025c0.374,0.201,0.843,0.425,0.944,0.435c0.093-0.002,0.588-0.155,1.005-0.3l0.422-0.312
	l-0.054-0.773l0.843,0.162l1.14-1.162l0.517-1.203l-0.141-1.68l0.056-0.06c0.601-0.625,0.668-0.625,0.747-0.625
	c0.05-0.021,0.659-0.31,1.198-0.574l1.139-0.559l0.932-0.85l-0.683-1.418l1.311,0.202l0.498,0.804l-0.346,1.019l0.406,0.257
	l1.033-1.728l0.691,0.27l-0.276,1.567l0.137,0.072l0.369-0.937l-0.246-3.591l-1.053-1.933l-0.051-0.68l0.629-0.583l0.092-0.885
	l-0.568-0.106l-1.569-0.49l-0.282-0.9l0.555-0.857l0.565-0.022l0.336-0.556l0.298-0.595l1.347,0.077l-0.313-0.543l-0.958-0.379
	l-0.364-0.341l-0.562-0.347l-0.409-0.819l0.052-0.997l0.476-0.37c0.155-0.074,0.295-0.147,0.37-0.193
	c-0.037-0.124-0.124-0.398-0.202-0.633l-0.1-0.298l1.043,0.216l0.384,0.586l0.337,0.317l0.432-0.347l0.572,0.366l0.629,0.868
	l0.473,0.182l0.383-0.176l0.048-0.524l0.491-0.125l0.625,0.567l0.098,0.96l0.001,0.521l-0.588,0.432l1.051,1.071l2.498-0.087
	l4.809,0.342l0.907-0.111l0.187,0.907l-0.485,0.614l-0.427,0.607l-0.482,0.846l-0.866,0.57l-1.884,0.854L78.678,40.9l0.04,0.629
	l0.399,1.024l0.33,0.487l0.66,0.495l0.357-0.419l-0.11-0.557l0.683-1.037l0.139-0.625l1.396-0.088l0.367,2.56l0.403,1.343
	l0.435,1.694l0.729,0.261l0.592-0.277l0.104-0.331v-0.359l0.045-1.217v-1.171l0.641-0.214c0.104-0.511,0.206-1.055,0.205-1.144
	c-0.021-0.07-0.087-0.839-0.115-1.166l0.027-0.875l1.439-0.49l0.796,0.889l0.37-0.027l0.038-0.62l0.711-1.111l0.633-0.815
	l0.533-1.279l-0.213-0.55l-0.053-0.494l0.488-0.804l0.964-0.993l0.175-1.31l-0.001-1.232l0.606-0.661l1.028-0.28l0.755-0.467
	l0.429-0.204l0.603-0.495c0.672-0.263,0.765-0.263,0.796-0.263c0.024-0.019,0.254-0.195,0.431-0.345l0.044-0.037l0.559-0.052
	l0.793,0.025l0.871,0.768l0.127-0.206l-0.611-1.07l0.028-0.697l1.156-0.67l0.143-0.785l-0.002-0.271l-0.578-0.318l-2.947-0.196
	l0.46-0.892l0.348-0.307l0.127-0.488l-0.317-0.523l-0.154-0.064l-1.122,0.422l0.111-0.965l0.407-0.297l-0.384-0.365l-0.567-0.056
	l-0.789,0.435l-0.624,0.721L92.732,22.5l-0.948-0.176l-0.966-0.452l-0.598,0.166l-0.994,0.455l-0.659,0.661l-1.345,0.829
	l-1.253,0.107l-0.751,0.815l-1.816,1.671l-1.118,0.319l-0.962,0.12l-0.62,0.001l-0.249,0.316l0.597,0.351l0.587,0.483l0.402,1.205
	L81.7,30.272l-5.093,0.212l-0.024-0.005l-1.036-0.238l-0.926,0.402l-0.941,0.023l-0.759-0.238l-0.583-0.231l-0.46-0.058
	l-0.757-0.023l-0.644-0.619l-0.556-0.334l0.402-0.501l0.231-0.189l-0.142-0.179l-0.285-0.485l0.327-0.832l0.155-0.506l-0.186-0.322
	l-0.284-0.159l-0.574-0.018l-0.213,0.255l-0.869,0.169l-0.115,0.859l-0.194,0.412l-0.189,1.118l0.516,0.852l-0.015,0.965
	l-0.479,1.136h-1.42l-1.458,0.073l-0.615-0.57l-0.647,0.236l-0.844,0.229l-1.01-0.633l-1.587-0.126l-0.906-0.397l-1.458-0.069
	l-1.002-0.739l-1.017-0.629l-0.721-0.933h-1.007l-0.918,0.093l-0.757-0.137l-1.139,0.089l-0.789-0.047l-0.917-0.544l-0.34-0.42
	l-1-0.087l-0.611-0.453l-0.879-0.022l-0.863-0.208l-0.958-0.57l-0.928-0.695l-1.225-0.802l-1.529-0.516l-0.828-0.336l-0.19-0.824
	l0.454-0.226l0.146-1.002l0.233-0.821l0.32-0.785l0.752-0.754l0.769-0.558V18.2l-0.291-0.436l-0.766-0.125l-0.941-0.229l-0.23-0.488
	l-0.393-0.436l-0.502-0.42L39.35,16.06l-0.916-0.264l-1.026-1.116l-0.372,0.018l-0.762,0.229h-0.438l-0.106-1.145l0-1.149
	l-0.268-0.411l-0.22-0.501l-0.333-0.213l-0.155-0.593l-0.063-0.562l0.478-0.239l0.506-0.311l0.524,0.443l0.46,0.72l0.217-0.039
	l0.531-0.488l0.45-0.316l0.477-0.657l-0.111-0.37l-0.13-0.3l-0.201-0.521l-0.26-0.086l-0.509-0.277l-0.278-0.299L36.259,7.25
	l-0.325-0.502V6.276l-0.247-0.568l0.45-0.874l0.359-0.44l-0.117-0.139l-0.542-0.161l-0.528-0.461L34.58,3.301l-0.768-0.534
	L33.528,1.63l-0.447-0.807l-0.442-0.295l-0.356-0.14L31.597,0.65l-0.869,0.668l-0.847,0.46l-0.917,0.874l-0.581,0.457L27.416,3.18
	l-1.412,0.315l-0.945,0.309l-4.276-1.098l-1.003,0.187l-0.625,0.605l-0.037,0.234l0.396,0.166l0.152,0.975h0.552l0.592,0.518
	l-0.886,0.6l0.017,0.388l0.377,0.83L19.986,7.57l-0.229,0.398l0.452,0.47l0.469,0.21l0.492,0.693l0.73,0.182l0.38,0.555l0.162,0.45
	h0.991l0.843,0.198v0.732l-0.655,0.496l-1.058,0.309l-0.801,0.667l-0.248,0.092l0.251,0.558l0.114,0.821l0.001,1.342l-2.417,1.984
	v0.319l-0.796,0.971c-0.446,0.184-0.972,0.431-1.09,0.527c-0.08,0.268-0.496,1.323-0.682,1.792l-0.023,0.041l-0.915,1.208
	l-1.231,0.775l-0.802,0.655l-0.204,0.79l-1.697,2.073H10.74l-0.835,0.317L8.59,27.343l-0.426-0.398l-0.422-0.509L7.28,26.23
	l-0.779,0.799l-0.938,0.916l-0.886,0.909L4.1,29.556l0.13,0.795l0.972,0.353l0.59,0.239h0.554l0.257,0.828L6.5,32.361l-0.254,0.394
	l0.204,0.897l0.188,0.292l0.739,0.102l0.713-0.001l0.169,0.759l0.317,0.753l0.466,0.418l0.196,0.736l0.257,0.891v1.345l-1.034,0.14
	L7.31,38.804l-0.429,0.004l-0.496,0.482l-0.729,0.358l-0.876,0.18l-0.472-0.52H1.705l-0.128,0.085l0.111,0.591l0.246,0.524
	l-0.979,0.502l-0.529,0.472l0.185,0.488l0.358,0.219l0.429,0.386L1.64,43.02l0.505,0.181l1.22,0.743h1.111l0.735-0.409l1.167-0.132
	l0.829-0.554h0.669v0.702l-0.84,1.008l-0.804,0.783L4.818,45.89l-1.5,0.387l-0.961-0.48l-0.023,0.019l0.038,0.076l0.987,1.1
	l2.955,2.841l1.189,0.946l1.683,0.453l1.425-0.614l1.758-1.034l0.651-1.302l-0.504-0.558L12.665,47l0.656-0.405l-0.201-0.218
	l0.292-0.759l0.802-0.445l0.447,0.521l1.415-0.111l0.984,0.452l-2.266,0.85l0.052,0.235l0.218,0.427l0.326,0.21l0.313-0.265h0.878
	L16.7,48.14l-1.662,0.969v0.331l1.011,1.147l-0.208,2.009l-0.804,1.694l0.407,0.741l0.25,1.095l0.218,0.52l0.38,1.511l-0.046,1.03
	v1.099l0.626,1.657l1.075,5.45l3.177,5.379l0.792,2.524l0.935,4.232l3.477,6.387l0.613,1.538l1.183,1.311l0.247,1.033l-0.495,0.786
	l0.823,2.164L30.743,94.967z"></path></svg>